<mxfile host="app.diagrams.net" agent="Mozilla/5.0 (Windows NT 10.0; Win64; x64) AppleWebKit/537.36 (KHTML, like Gecko) Chrome/135.0.0.0 Safari/537.36" version="26.2.14" pages="2">
  <diagram id="OEpcH9aQiRdJSrWQr7b0" name="Page-1">
    <mxGraphModel grid="1" page="0" gridSize="10" guides="1" tooltips="1" connect="1" arrows="1" fold="1" pageScale="1" pageWidth="850" pageHeight="1100" background="none" math="0" shadow="0">
      <root>
        <mxCell id="0" />
        <mxCell id="1" parent="0" />
        <mxCell id="vY-7-EDmUI9f818LXau1-1" value="" style="image;html=1;image=img/lib/clip_art/networking/Firewall_02_128x128.png;movable=0;resizable=0;rotatable=0;deletable=0;editable=0;locked=1;connectable=0;" vertex="1" parent="1">
          <mxGeometry x="192" y="186" width="123" height="132" as="geometry" />
        </mxCell>
        <mxCell id="vY-7-EDmUI9f818LXau1-2" value="" style="image;html=1;image=img/lib/clip_art/networking/Firewall_02_128x128.png;movable=0;resizable=0;rotatable=0;deletable=0;editable=0;locked=1;connectable=0;" vertex="1" parent="1">
          <mxGeometry x="705" y="186" width="123" height="132" as="geometry" />
        </mxCell>
        <mxCell id="vY-7-EDmUI9f818LXau1-3" value="" style="image;html=1;image=img/lib/clip_art/networking/Firewall_02_128x128.png;movable=0;resizable=0;rotatable=0;deletable=0;editable=0;locked=1;connectable=0;" vertex="1" parent="1">
          <mxGeometry x="891" y="186" width="123" height="132" as="geometry" />
        </mxCell>
        <mxCell id="vY-7-EDmUI9f818LXau1-4" value="" style="image;html=1;image=img/lib/clip_art/networking/Firewall_02_128x128.png;movable=0;resizable=0;rotatable=0;deletable=0;editable=0;locked=1;connectable=0;" vertex="1" parent="1">
          <mxGeometry x="1069" y="186" width="123" height="132" as="geometry" />
        </mxCell>
        <mxCell id="vY-7-EDmUI9f818LXau1-12" value="" style="image;aspect=fixed;perimeter=ellipsePerimeter;html=1;align=center;shadow=0;dashed=0;spacingTop=3;image=img/lib/active_directory/internet_cloud.svg;movable=0;resizable=0;rotatable=0;deletable=0;editable=0;locked=1;connectable=0;" vertex="1" parent="1">
          <mxGeometry x="438" y="206.63" width="144.05" height="90.75" as="geometry" />
        </mxCell>
        <mxCell id="vY-7-EDmUI9f818LXau1-13" value="&lt;font style=&quot;color: light-dark(rgb(0, 0, 0), rgb(0, 0, 0));&quot;&gt;Internet&lt;/font&gt;" style="text;strokeColor=none;fillColor=none;html=1;align=center;verticalAlign=middle;whiteSpace=wrap;rounded=0;fontSize=16;movable=0;resizable=0;rotatable=0;deletable=0;editable=0;locked=1;connectable=0;" vertex="1" parent="1">
          <mxGeometry x="475" y="235" width="69" height="30" as="geometry" />
        </mxCell>
        <mxCell id="vY-7-EDmUI9f818LXau1-14" value="&lt;div style=&quot;text-align: center;&quot;&gt;&lt;b&gt;Main Office&lt;/b&gt;&lt;/div&gt;&lt;div style=&quot;text-align: center;&quot;&gt;&lt;b&gt;(Wayne site)&lt;/b&gt;&lt;/div&gt;ISP: Optimum&lt;div&gt;VPN IP: 10.99.1.1&lt;/div&gt;&lt;div&gt;&lt;br&gt;&lt;/div&gt;" style="text;strokeColor=none;fillColor=none;html=1;align=left;verticalAlign=middle;whiteSpace=wrap;rounded=0;fontSize=16;movable=0;resizable=0;rotatable=0;deletable=0;editable=0;locked=1;connectable=0;" vertex="1" parent="1">
          <mxGeometry x="178" y="45" width="151" height="113" as="geometry" />
        </mxCell>
        <mxCell id="vY-7-EDmUI9f818LXau1-15" value="&lt;div&gt;&lt;b&gt;Clifton Office&lt;/b&gt;&lt;/div&gt;&lt;div style=&quot;text-align: left;&quot;&gt;&lt;span style=&quot;background-color: transparent; color: light-dark(rgb(0, 0, 0), rgb(255, 255, 255));&quot;&gt;ISP: Verizon&lt;/span&gt;&lt;/div&gt;&lt;div style=&quot;text-align: left;&quot;&gt;VPN IP: 10.99.2.1&amp;nbsp;&lt;/div&gt;" style="text;strokeColor=none;fillColor=none;html=1;align=center;verticalAlign=middle;whiteSpace=wrap;rounded=0;fontSize=16;movable=0;resizable=0;rotatable=0;deletable=0;editable=0;locked=1;connectable=0;" vertex="1" parent="1">
          <mxGeometry x="691" y="45" width="151" height="113" as="geometry" />
        </mxCell>
        <mxCell id="vY-7-EDmUI9f818LXau1-16" value="&lt;div&gt;&lt;b&gt;Woodland Park Office&lt;/b&gt;&lt;/div&gt;&lt;div style=&quot;text-align: left;&quot;&gt;&lt;span style=&quot;background-color: transparent; color: light-dark(rgb(0, 0, 0), rgb(255, 255, 255));&quot;&gt;ISP: Optimum&lt;/span&gt;&lt;/div&gt;&lt;div style=&quot;text-align: left;&quot;&gt;VPN IP: 10.99.3.1&lt;/div&gt;" style="text;strokeColor=none;fillColor=none;html=1;align=center;verticalAlign=middle;whiteSpace=wrap;rounded=0;fontSize=16;movable=0;resizable=0;rotatable=0;deletable=0;editable=0;locked=1;connectable=0;" vertex="1" parent="1">
          <mxGeometry x="877" y="45" width="151" height="113" as="geometry" />
        </mxCell>
        <mxCell id="vY-7-EDmUI9f818LXau1-17" value="&lt;div&gt;&lt;b&gt;Fair Lawn Office&lt;/b&gt;&lt;/div&gt;&lt;div style=&quot;text-align: left;&quot;&gt;&lt;span style=&quot;background-color: transparent; color: light-dark(rgb(0, 0, 0), rgb(255, 255, 255));&quot;&gt;ISP: Optimum&lt;/span&gt;&lt;/div&gt;&lt;div style=&quot;text-align: left;&quot;&gt;VPN IP: 10.99.4.1&lt;/div&gt;" style="text;strokeColor=none;fillColor=none;html=1;align=center;verticalAlign=middle;whiteSpace=wrap;rounded=0;fontSize=16;movable=0;resizable=0;rotatable=0;deletable=0;editable=0;locked=1;connectable=0;" vertex="1" parent="1">
          <mxGeometry x="1055" y="45" width="151" height="113" as="geometry" />
        </mxCell>
        <mxCell id="vY-7-EDmUI9f818LXau1-18" value="VPN Device: SonicWall TZ470" style="text;strokeColor=none;fillColor=none;html=1;align=center;verticalAlign=middle;whiteSpace=wrap;rounded=0;fontSize=16;movable=0;resizable=0;rotatable=0;deletable=0;editable=0;locked=1;connectable=0;" vertex="1" parent="1">
          <mxGeometry x="178" y="351" width="151.5" height="30" as="geometry" />
        </mxCell>
        <mxCell id="vY-7-EDmUI9f818LXau1-19" value="VPN Device: SonicWall TZ370" style="text;strokeColor=none;fillColor=none;html=1;align=center;verticalAlign=middle;whiteSpace=wrap;rounded=0;fontSize=16;movable=0;resizable=0;rotatable=0;deletable=0;editable=0;locked=1;connectable=0;" vertex="1" parent="1">
          <mxGeometry x="676.5" y="351" width="151.5" height="30" as="geometry" />
        </mxCell>
        <mxCell id="vY-7-EDmUI9f818LXau1-20" value="VPN Device: SonicWall TZ370" style="text;strokeColor=none;fillColor=none;html=1;align=center;verticalAlign=middle;whiteSpace=wrap;rounded=0;fontSize=16;movable=0;resizable=0;rotatable=0;deletable=0;editable=0;locked=1;connectable=0;" vertex="1" parent="1">
          <mxGeometry x="876.5" y="351" width="151.5" height="30" as="geometry" />
        </mxCell>
        <mxCell id="vY-7-EDmUI9f818LXau1-21" value="VPN Device: SonicWall TZ370" style="text;strokeColor=none;fillColor=none;html=1;align=center;verticalAlign=middle;whiteSpace=wrap;rounded=0;fontSize=16;movable=0;resizable=0;rotatable=0;deletable=0;editable=0;locked=1;connectable=0;" vertex="1" parent="1">
          <mxGeometry x="1054.5" y="351" width="151.5" height="30" as="geometry" />
        </mxCell>
      </root>
    </mxGraphModel>
  </diagram>
  <diagram id="j0SVRX6bJKmQGoRng51-" name="Page-2">
    <mxGraphModel dx="2788" dy="1863" grid="1" gridSize="10" guides="1" tooltips="1" connect="1" arrows="1" fold="1" page="0" pageScale="1" pageWidth="850" pageHeight="1100" math="0" shadow="0">
      <root>
        <mxCell id="0" />
        <mxCell id="1" parent="0" />
        <mxCell id="9bt5hfUO0HVtnm0HjsPu-1" value="" style="image;html=1;image=img/lib/clip_art/networking/Router_Icon_128x128.png" vertex="1" parent="1">
          <mxGeometry x="-1090" y="-563" width="80" height="80" as="geometry" />
        </mxCell>
        <mxCell id="9bt5hfUO0HVtnm0HjsPu-2" value="" style="image;html=1;image=img/lib/clip_art/networking/Switch_128x128.png" vertex="1" parent="1">
          <mxGeometry x="-870" y="-560" width="80" height="80" as="geometry" />
        </mxCell>
        <mxCell id="9bt5hfUO0HVtnm0HjsPu-3" value="" style="shape=mxgraph.cisco.routers.wireless_router;html=1;pointerEvents=1;dashed=0;fillColor=#036897;strokeColor=#ffffff;strokeWidth=2;verticalLabelPosition=bottom;verticalAlign=top;align=center;outlineConnect=0;" vertex="1" parent="1">
          <mxGeometry x="-660" y="-557" width="78" height="77" as="geometry" />
        </mxCell>
        <mxCell id="9bt5hfUO0HVtnm0HjsPu-7" value="" style="endArrow=none;html=1;rounded=0;fontSize=12;startSize=8;endSize=8;curved=1;exitX=0.994;exitY=0.4;exitDx=0;exitDy=0;exitPerimeter=0;entryX=0;entryY=0.375;entryDx=0;entryDy=0;entryPerimeter=0;" edge="1" parent="1" source="9bt5hfUO0HVtnm0HjsPu-1" target="9bt5hfUO0HVtnm0HjsPu-2">
          <mxGeometry width="50" height="50" relative="1" as="geometry">
            <mxPoint x="-610" y="-300" as="sourcePoint" />
            <mxPoint x="-560" y="-350" as="targetPoint" />
          </mxGeometry>
        </mxCell>
        <mxCell id="9bt5hfUO0HVtnm0HjsPu-8" value="" style="endArrow=none;html=1;rounded=0;fontSize=12;startSize=8;endSize=8;curved=1;exitX=1;exitY=0.5;exitDx=0;exitDy=0;entryX=0;entryY=0.5;entryDx=0;entryDy=0;entryPerimeter=0;" edge="1" parent="1" source="9bt5hfUO0HVtnm0HjsPu-2" target="9bt5hfUO0HVtnm0HjsPu-3">
          <mxGeometry width="50" height="50" relative="1" as="geometry">
            <mxPoint x="-610" y="-300" as="sourcePoint" />
            <mxPoint x="-560" y="-350" as="targetPoint" />
          </mxGeometry>
        </mxCell>
        <mxCell id="9bt5hfUO0HVtnm0HjsPu-9" value="Sonic WALL TZ 470&lt;div&gt;(VPN Firewall / Router&amp;nbsp;&lt;/div&gt;" style="text;strokeColor=none;fillColor=none;html=1;align=center;verticalAlign=middle;whiteSpace=wrap;rounded=0;fontSize=16;" vertex="1" parent="1">
          <mxGeometry x="-1100" y="-613" width="100" height="30" as="geometry" />
        </mxCell>
        <mxCell id="9bt5hfUO0HVtnm0HjsPu-10" value="Dell X1026P&lt;div&gt;(Switch)&lt;/div&gt;" style="text;strokeColor=none;fillColor=none;html=1;align=center;verticalAlign=middle;whiteSpace=wrap;rounded=0;fontSize=16;" vertex="1" parent="1">
          <mxGeometry x="-860" y="-610" width="60" height="30" as="geometry" />
        </mxCell>
        <mxCell id="9bt5hfUO0HVtnm0HjsPu-11" value="Unifi UAP-PRO&lt;div&gt;(W.A.P)&lt;/div&gt;" style="text;strokeColor=none;fillColor=none;html=1;align=center;verticalAlign=middle;whiteSpace=wrap;rounded=0;fontSize=16;" vertex="1" parent="1">
          <mxGeometry x="-651" y="-617" width="60" height="30" as="geometry" />
        </mxCell>
        <mxCell id="9bt5hfUO0HVtnm0HjsPu-14" value="" style="image;html=1;image=img/lib/clip_art/computers/Server_Tower_128x128.png" vertex="1" parent="1">
          <mxGeometry x="-990" y="-350" width="150" height="140" as="geometry" />
        </mxCell>
        <mxCell id="9bt5hfUO0HVtnm0HjsPu-15" value="" style="image;html=1;image=img/lib/clip_art/computers/Server_Tower_128x128.png" vertex="1" parent="1">
          <mxGeometry x="-790" y="-350" width="150" height="140" as="geometry" />
        </mxCell>
        <mxCell id="9bt5hfUO0HVtnm0HjsPu-17" value="" style="endArrow=none;html=1;rounded=0;fontSize=12;startSize=8;endSize=8;curved=1;entryX=1;entryY=1;entryDx=0;entryDy=0;exitX=0.291;exitY=0.026;exitDx=0;exitDy=0;exitPerimeter=0;" edge="1" parent="1" source="9bt5hfUO0HVtnm0HjsPu-15" target="9bt5hfUO0HVtnm0HjsPu-2">
          <mxGeometry width="50" height="50" relative="1" as="geometry">
            <mxPoint x="-610" y="-380" as="sourcePoint" />
            <mxPoint x="-560" y="-430" as="targetPoint" />
          </mxGeometry>
        </mxCell>
        <mxCell id="9bt5hfUO0HVtnm0HjsPu-18" value="" style="endArrow=none;html=1;rounded=0;fontSize=12;startSize=8;endSize=8;curved=1;exitX=0.5;exitY=0;exitDx=0;exitDy=0;entryX=0.046;entryY=0.931;entryDx=0;entryDy=0;entryPerimeter=0;" edge="1" parent="1" source="9bt5hfUO0HVtnm0HjsPu-14" target="9bt5hfUO0HVtnm0HjsPu-2">
          <mxGeometry width="50" height="50" relative="1" as="geometry">
            <mxPoint x="-610" y="-380" as="sourcePoint" />
            <mxPoint x="-560" y="-430" as="targetPoint" />
          </mxGeometry>
        </mxCell>
        <mxCell id="9bt5hfUO0HVtnm0HjsPu-19" value="Static IP: 10.99.1.3" style="text;strokeColor=none;fillColor=none;html=1;align=center;verticalAlign=middle;whiteSpace=wrap;rounded=0;fontSize=16;" vertex="1" parent="1">
          <mxGeometry x="-860" y="-480" width="70" height="30" as="geometry" />
        </mxCell>
        <mxCell id="9bt5hfUO0HVtnm0HjsPu-21" value="Static IP: 10.99.1.5" style="text;strokeColor=none;fillColor=none;html=1;align=center;verticalAlign=middle;whiteSpace=wrap;rounded=0;fontSize=16;" vertex="1" parent="1">
          <mxGeometry x="-656.5" y="-470" width="71" height="30" as="geometry" />
        </mxCell>
        <mxCell id="9bt5hfUO0HVtnm0HjsPu-22" value="Static IP: 10.99.1.1" style="text;strokeColor=none;fillColor=none;html=1;align=center;verticalAlign=middle;whiteSpace=wrap;rounded=0;fontSize=16;" vertex="1" parent="1">
          <mxGeometry x="-1095" y="-480" width="90" height="30" as="geometry" />
        </mxCell>
        <mxCell id="9bt5hfUO0HVtnm0HjsPu-23" value="Static IP: 10.99.1.13" style="text;strokeColor=none;fillColor=none;html=1;align=center;verticalAlign=middle;whiteSpace=wrap;rounded=0;fontSize=16;" vertex="1" parent="1">
          <mxGeometry x="-745" y="-200" width="60" height="30" as="geometry" />
        </mxCell>
        <mxCell id="9bt5hfUO0HVtnm0HjsPu-24" value="Static IP: 10.99.1.11" style="text;strokeColor=none;fillColor=none;html=1;align=center;verticalAlign=middle;whiteSpace=wrap;rounded=0;fontSize=16;" vertex="1" parent="1">
          <mxGeometry x="-945" y="-200" width="60" height="30" as="geometry" />
        </mxCell>
        <mxCell id="9bt5hfUO0HVtnm0HjsPu-25" value="Dell P.E. T440&lt;div&gt;Server&lt;/div&gt;&lt;div&gt;(File / Print)&lt;/div&gt;" style="text;strokeColor=none;fillColor=none;html=1;align=center;verticalAlign=middle;whiteSpace=wrap;rounded=0;fontSize=16;" vertex="1" parent="1">
          <mxGeometry x="-1090" y="-330" width="120" height="70" as="geometry" />
        </mxCell>
        <mxCell id="9bt5hfUO0HVtnm0HjsPu-27" value="Dell Precision 5820 Server&lt;div&gt;(Fax)&lt;/div&gt;" style="text;strokeColor=none;fillColor=none;html=1;align=center;verticalAlign=middle;whiteSpace=wrap;rounded=0;fontSize=16;" vertex="1" parent="1">
          <mxGeometry x="-640" y="-335" width="120" height="80" as="geometry" />
        </mxCell>
        <mxCell id="9bt5hfUO0HVtnm0HjsPu-28" value="" style="verticalLabelPosition=bottom;sketch=0;aspect=fixed;html=1;verticalAlign=top;strokeColor=none;align=center;outlineConnect=0;shape=mxgraph.citrix.printer;" vertex="1" parent="1">
          <mxGeometry x="-880" y="-100" width="110" height="110" as="geometry" />
        </mxCell>
        <mxCell id="9bt5hfUO0HVtnm0HjsPu-29" value="" style="verticalLabelPosition=bottom;sketch=0;aspect=fixed;html=1;verticalAlign=top;strokeColor=none;align=center;outlineConnect=0;shape=mxgraph.citrix.printer;" vertex="1" parent="1">
          <mxGeometry x="-690" y="-100" width="110" height="110" as="geometry" />
        </mxCell>
        <mxCell id="9bt5hfUO0HVtnm0HjsPu-30" value="" style="verticalLabelPosition=bottom;sketch=0;aspect=fixed;html=1;verticalAlign=top;strokeColor=none;align=center;outlineConnect=0;shape=mxgraph.citrix.printer;" vertex="1" parent="1">
          <mxGeometry x="-1070" y="-100" width="110" height="110" as="geometry" />
        </mxCell>
        <mxCell id="9bt5hfUO0HVtnm0HjsPu-31" value="Static IP: 10.99.1.26" style="text;strokeColor=none;fillColor=none;html=1;align=center;verticalAlign=middle;whiteSpace=wrap;rounded=0;fontSize=16;" vertex="1" parent="1">
          <mxGeometry x="-1045" y="-50" width="60" height="30" as="geometry" />
        </mxCell>
        <mxCell id="9bt5hfUO0HVtnm0HjsPu-32" value="Static IP: 10.99.1.27" style="text;strokeColor=none;fillColor=none;html=1;align=center;verticalAlign=middle;whiteSpace=wrap;rounded=0;fontSize=16;" vertex="1" parent="1">
          <mxGeometry x="-855" y="-50" width="60" height="30" as="geometry" />
        </mxCell>
        <mxCell id="9bt5hfUO0HVtnm0HjsPu-33" value="Static IP: 10.99.1.28" style="text;strokeColor=none;fillColor=none;html=1;align=center;verticalAlign=middle;whiteSpace=wrap;rounded=0;fontSize=16;" vertex="1" parent="1">
          <mxGeometry x="-665" y="-50" width="60" height="30" as="geometry" />
        </mxCell>
        <mxCell id="9bt5hfUO0HVtnm0HjsPu-34" value="Ricoh Aficio MP C5502&lt;div&gt;(Office Copier)&lt;/div&gt;" style="text;strokeColor=none;fillColor=none;html=1;align=center;verticalAlign=middle;whiteSpace=wrap;rounded=0;fontSize=16;" vertex="1" parent="1">
          <mxGeometry x="-1070" y="40" width="110" height="30" as="geometry" />
        </mxCell>
        <mxCell id="9bt5hfUO0HVtnm0HjsPu-35" value="&lt;div&gt;HP LaserJet M255dw (Front Printer)&lt;/div&gt;" style="text;strokeColor=none;fillColor=none;html=1;align=center;verticalAlign=middle;whiteSpace=wrap;rounded=0;fontSize=16;" vertex="1" parent="1">
          <mxGeometry x="-885" y="40" width="105" height="30" as="geometry" />
        </mxCell>
        <mxCell id="9bt5hfUO0HVtnm0HjsPu-36" value="&lt;div&gt;HP LaserJet M404dn&amp;nbsp;&lt;/div&gt;&lt;div&gt;(Rear Printer)&lt;/div&gt;" style="text;strokeColor=none;fillColor=none;html=1;align=center;verticalAlign=middle;whiteSpace=wrap;rounded=0;fontSize=16;" vertex="1" parent="1">
          <mxGeometry x="-687.5" y="40" width="107.5" height="30" as="geometry" />
        </mxCell>
        <mxCell id="9bt5hfUO0HVtnm0HjsPu-38" value="" style="image;html=1;image=img/lib/clip_art/computers/Workstation_128x128.png" vertex="1" parent="1">
          <mxGeometry x="-1200.83" y="-1020" width="80" height="80" as="geometry" />
        </mxCell>
        <mxCell id="9bt5hfUO0HVtnm0HjsPu-45" value="" style="image;html=1;image=img/lib/clip_art/computers/Laptop_128x128.png" vertex="1" parent="1">
          <mxGeometry x="-446.75" y="-660" width="80" height="80" as="geometry" />
        </mxCell>
        <mxCell id="9bt5hfUO0HVtnm0HjsPu-50" value="" style="endArrow=none;html=1;rounded=0;fontSize=12;startSize=8;endSize=8;curved=1;" edge="1" parent="1">
          <mxGeometry width="50" height="50" relative="1" as="geometry">
            <mxPoint x="-360.83" y="-1040" as="sourcePoint" />
            <mxPoint x="-1230.83" y="-1040" as="targetPoint" />
          </mxGeometry>
        </mxCell>
        <mxCell id="9bt5hfUO0HVtnm0HjsPu-51" value="" style="endArrow=none;html=1;rounded=0;fontSize=12;startSize=8;endSize=8;curved=1;" edge="1" parent="1">
          <mxGeometry width="50" height="50" relative="1" as="geometry">
            <mxPoint x="-360.83" y="-690" as="sourcePoint" />
            <mxPoint x="-1230.83" y="-690" as="targetPoint" />
          </mxGeometry>
        </mxCell>
        <mxCell id="9bt5hfUO0HVtnm0HjsPu-55" value="" style="endArrow=none;html=1;rounded=0;fontSize=12;startSize=8;endSize=8;curved=1;" edge="1" parent="1">
          <mxGeometry width="50" height="50" relative="1" as="geometry">
            <mxPoint x="-1230.83" y="-690" as="sourcePoint" />
            <mxPoint x="-1230.83" y="-1040" as="targetPoint" />
          </mxGeometry>
        </mxCell>
        <mxCell id="9bt5hfUO0HVtnm0HjsPu-56" value="" style="endArrow=none;html=1;rounded=0;fontSize=12;startSize=8;endSize=8;curved=1;" edge="1" parent="1">
          <mxGeometry width="50" height="50" relative="1" as="geometry">
            <mxPoint x="-360.83" y="-690" as="sourcePoint" />
            <mxPoint x="-360.83" y="-1040" as="targetPoint" />
          </mxGeometry>
        </mxCell>
        <mxCell id="9bt5hfUO0HVtnm0HjsPu-57" value="" style="endArrow=none;html=1;rounded=0;fontSize=12;startSize=8;endSize=8;curved=1;exitX=0.5;exitY=0;exitDx=0;exitDy=0;" edge="1" parent="1" source="9bt5hfUO0HVtnm0HjsPu-2">
          <mxGeometry width="50" height="50" relative="1" as="geometry">
            <mxPoint x="-790" y="-720" as="sourcePoint" />
            <mxPoint x="-830" y="-690" as="targetPoint" />
          </mxGeometry>
        </mxCell>
        <mxCell id="9bt5hfUO0HVtnm0HjsPu-59" value="DHCP Assigned addresses" style="text;strokeColor=none;fillColor=none;html=1;align=center;verticalAlign=middle;whiteSpace=wrap;rounded=0;fontSize=16;" vertex="1" parent="1">
          <mxGeometry x="-910.83" y="-740" width="240" height="30" as="geometry" />
        </mxCell>
        <mxCell id="9bt5hfUO0HVtnm0HjsPu-60" value="DHCP Scope (10.99.1.51 - 10.99.1.150)" style="text;strokeColor=none;fillColor=none;html=1;align=center;verticalAlign=middle;whiteSpace=wrap;rounded=0;fontSize=16;" vertex="1" parent="1">
          <mxGeometry x="-980.83" y="-720" width="370" height="30" as="geometry" />
        </mxCell>
        <mxCell id="9bt5hfUO0HVtnm0HjsPu-61" value="Dell-Office01&lt;div&gt;10.99.1.51&lt;/div&gt;" style="text;strokeColor=none;fillColor=none;html=1;align=center;verticalAlign=middle;whiteSpace=wrap;rounded=0;fontSize=16;" vertex="1" parent="1">
          <mxGeometry x="-1215.83" y="-930" width="110" height="30" as="geometry" />
        </mxCell>
        <mxCell id="9bt5hfUO0HVtnm0HjsPu-70" value="" style="image;html=1;image=img/lib/clip_art/computers/Workstation_128x128.png" vertex="1" parent="1">
          <mxGeometry x="-1075.83" y="-1020" width="80" height="80" as="geometry" />
        </mxCell>
        <mxCell id="9bt5hfUO0HVtnm0HjsPu-71" value="Dell-Office02&lt;div&gt;10.99.1.52&lt;/div&gt;" style="text;strokeColor=none;fillColor=none;html=1;align=center;verticalAlign=middle;whiteSpace=wrap;rounded=0;fontSize=16;" vertex="1" parent="1">
          <mxGeometry x="-1090.83" y="-930" width="110" height="30" as="geometry" />
        </mxCell>
        <mxCell id="9bt5hfUO0HVtnm0HjsPu-72" value="" style="image;html=1;image=img/lib/clip_art/computers/Workstation_128x128.png" vertex="1" parent="1">
          <mxGeometry x="-945.83" y="-1020" width="80" height="80" as="geometry" />
        </mxCell>
        <mxCell id="9bt5hfUO0HVtnm0HjsPu-73" value="Dell-Office03&lt;div&gt;10.99.1.53&lt;/div&gt;" style="text;strokeColor=none;fillColor=none;html=1;align=center;verticalAlign=middle;whiteSpace=wrap;rounded=0;fontSize=16;" vertex="1" parent="1">
          <mxGeometry x="-960.83" y="-930" width="110" height="30" as="geometry" />
        </mxCell>
        <mxCell id="9bt5hfUO0HVtnm0HjsPu-74" value="" style="image;html=1;image=img/lib/clip_art/computers/Workstation_128x128.png" vertex="1" parent="1">
          <mxGeometry x="-1155.83" y="-880" width="80" height="80" as="geometry" />
        </mxCell>
        <mxCell id="9bt5hfUO0HVtnm0HjsPu-75" value="Dell-Office04&lt;div&gt;10.99.1.54&lt;/div&gt;" style="text;strokeColor=none;fillColor=none;html=1;align=center;verticalAlign=middle;whiteSpace=wrap;rounded=0;fontSize=16;" vertex="1" parent="1">
          <mxGeometry x="-1170.83" y="-790" width="110" height="30" as="geometry" />
        </mxCell>
        <mxCell id="9bt5hfUO0HVtnm0HjsPu-76" value="" style="image;html=1;image=img/lib/clip_art/computers/Workstation_128x128.png" vertex="1" parent="1">
          <mxGeometry x="-1015.83" y="-880" width="80" height="80" as="geometry" />
        </mxCell>
        <mxCell id="9bt5hfUO0HVtnm0HjsPu-77" value="Dell-Office05&lt;div&gt;10.99.1.55&lt;/div&gt;" style="text;strokeColor=none;fillColor=none;html=1;align=center;verticalAlign=middle;whiteSpace=wrap;rounded=0;fontSize=16;" vertex="1" parent="1">
          <mxGeometry x="-1030.83" y="-790" width="110" height="30" as="geometry" />
        </mxCell>
        <mxCell id="9bt5hfUO0HVtnm0HjsPu-78" value="" style="image;html=1;image=img/lib/clip_art/computers/Workstation_128x128.png" vertex="1" parent="1">
          <mxGeometry x="-690.83" y="-950" width="80" height="80" as="geometry" />
        </mxCell>
        <mxCell id="9bt5hfUO0HVtnm0HjsPu-79" value="Dell-Con01&lt;div&gt;10.99.1.56&lt;/div&gt;" style="text;strokeColor=none;fillColor=none;html=1;align=center;verticalAlign=middle;whiteSpace=wrap;rounded=0;fontSize=16;" vertex="1" parent="1">
          <mxGeometry x="-705.83" y="-860" width="110" height="30" as="geometry" />
        </mxCell>
        <mxCell id="9bt5hfUO0HVtnm0HjsPu-80" value="" style="image;html=1;image=img/lib/clip_art/computers/Workstation_128x128.png" vertex="1" parent="1">
          <mxGeometry x="-504.33" y="-950" width="80" height="80" as="geometry" />
        </mxCell>
        <mxCell id="9bt5hfUO0HVtnm0HjsPu-81" value="Dell-Con02&lt;div&gt;10.99.1.57&lt;/div&gt;" style="text;strokeColor=none;fillColor=none;html=1;align=center;verticalAlign=middle;whiteSpace=wrap;rounded=0;fontSize=16;" vertex="1" parent="1">
          <mxGeometry x="-519.33" y="-860" width="110" height="30" as="geometry" />
        </mxCell>
        <mxCell id="9bt5hfUO0HVtnm0HjsPu-83" value="" style="sketch=0;aspect=fixed;pointerEvents=1;shadow=0;dashed=0;html=1;strokeColor=none;labelPosition=center;verticalLabelPosition=bottom;verticalAlign=top;align=center;fillColor=#00188D;shape=mxgraph.mscae.enterprise.wireless_connection;rotation=30;" vertex="1" parent="1">
          <mxGeometry x="-543.5" y="-489.88" width="33.5" height="39.88" as="geometry" />
        </mxCell>
        <mxCell id="9bt5hfUO0HVtnm0HjsPu-84" value="" style="sketch=0;aspect=fixed;pointerEvents=1;shadow=0;dashed=0;html=1;strokeColor=none;labelPosition=center;verticalLabelPosition=bottom;verticalAlign=top;align=center;fillColor=#00188D;shape=mxgraph.mscae.enterprise.wireless_connection;rotation=-30;" vertex="1" parent="1">
          <mxGeometry x="-543.5" y="-583" width="33.5" height="39.88" as="geometry" />
        </mxCell>
        <mxCell id="9bt5hfUO0HVtnm0HjsPu-85" value="Dell-AcctCPA01&lt;div&gt;10.99.1.58&lt;/div&gt;" style="text;strokeColor=none;fillColor=none;html=1;align=center;verticalAlign=middle;whiteSpace=wrap;rounded=0;fontSize=16;" vertex="1" parent="1">
          <mxGeometry x="-453.5" y="-573.12" width="93.5" height="30" as="geometry" />
        </mxCell>
        <mxCell id="9bt5hfUO0HVtnm0HjsPu-86" value="" style="image;html=1;image=img/lib/clip_art/computers/Laptop_128x128.png" vertex="1" parent="1">
          <mxGeometry x="-446.75" y="-483" width="80" height="80" as="geometry" />
        </mxCell>
        <mxCell id="9bt5hfUO0HVtnm0HjsPu-87" value="Dell-AcctCPA02&lt;div&gt;10.99.1.59&lt;/div&gt;" style="text;strokeColor=none;fillColor=none;html=1;align=center;verticalAlign=middle;whiteSpace=wrap;rounded=0;fontSize=16;" vertex="1" parent="1">
          <mxGeometry x="-453.5" y="-396.12" width="93.5" height="30" as="geometry" />
        </mxCell>
        <mxCell id="9bt5hfUO0HVtnm0HjsPu-88" value="" style="endArrow=none;html=1;rounded=0;fontSize=12;startSize=8;endSize=8;curved=1;" edge="1" parent="1">
          <mxGeometry width="50" height="50" relative="1" as="geometry">
            <mxPoint x="-1000" y="-120" as="sourcePoint" />
            <mxPoint x="-620" y="-120" as="targetPoint" />
          </mxGeometry>
        </mxCell>
        <mxCell id="9bt5hfUO0HVtnm0HjsPu-89" value="" style="endArrow=none;html=1;rounded=0;fontSize=12;startSize=8;endSize=8;curved=1;" edge="1" parent="1">
          <mxGeometry width="50" height="50" relative="1" as="geometry">
            <mxPoint x="-820" y="-120" as="sourcePoint" />
            <mxPoint x="-820" y="-280" as="targetPoint" />
          </mxGeometry>
        </mxCell>
        <mxCell id="9bt5hfUO0HVtnm0HjsPu-90" value="" style="endArrow=none;html=1;rounded=0;fontSize=12;startSize=8;endSize=8;curved=1;" edge="1" parent="1" target="9bt5hfUO0HVtnm0HjsPu-30">
          <mxGeometry width="50" height="50" relative="1" as="geometry">
            <mxPoint x="-1000" y="-120" as="sourcePoint" />
            <mxPoint x="-800" y="-190" as="targetPoint" />
          </mxGeometry>
        </mxCell>
        <mxCell id="9bt5hfUO0HVtnm0HjsPu-91" value="" style="endArrow=none;html=1;rounded=0;fontSize=12;startSize=8;endSize=8;curved=1;" edge="1" parent="1" target="9bt5hfUO0HVtnm0HjsPu-28">
          <mxGeometry width="50" height="50" relative="1" as="geometry">
            <mxPoint x="-820" y="-120" as="sourcePoint" />
            <mxPoint x="-800" y="-190" as="targetPoint" />
          </mxGeometry>
        </mxCell>
        <mxCell id="9bt5hfUO0HVtnm0HjsPu-92" value="" style="endArrow=none;html=1;rounded=0;fontSize=12;startSize=8;endSize=8;curved=1;" edge="1" parent="1" source="9bt5hfUO0HVtnm0HjsPu-29">
          <mxGeometry width="50" height="50" relative="1" as="geometry">
            <mxPoint x="-850" y="-140" as="sourcePoint" />
            <mxPoint x="-620" y="-120" as="targetPoint" />
          </mxGeometry>
        </mxCell>
      </root>
    </mxGraphModel>
  </diagram>
</mxfile>
